<svg width="111" height="21" viewBox="0 0 111 21" fill="none" xmlns="http://www.w3.org/2000/svg">
<g opacity="0.5">
<path d="M24.9404 11.2165C24.8068 11.2061 24.6717 11.2105 24.5367 11.2105C21.7227 11.2091 18.9094 11.2098 16.0954 11.2061C15.0368 11.2046 14.4693 10.4093 14.7887 9.3834C14.9648 8.81784 15.144 8.25377 15.3172 7.68747C15.4009 7.41469 15.4567 7.1397 15.3877 6.84987C15.2181 6.13681 14.6741 5.72468 13.8666 5.7232C10.8448 5.71949 7.82307 5.72024 4.80132 5.71875C3.18987 5.71801 2.99752 5.85662 2.50858 7.40802C2.25456 8.21448 2.0123 9.02539 1.76415 9.83407C1.78471 9.85928 1.80527 9.88448 1.82582 9.90894C2.22814 9.11434 2.92558 9.13657 3.63843 9.1388C6.74608 9.14918 9.85298 9.14102 12.9606 9.14102C14.1588 9.14102 14.702 9.87039 14.3665 11.0386C14.1999 11.6197 14.0024 12.1912 13.8335 12.7723C13.5487 13.7515 14.1764 14.6061 15.1888 14.6239C15.6043 14.6313 16.0206 14.6254 16.4368 14.6254C18.7127 14.6247 20.9878 14.6269 23.2636 14.621C23.721 14.6195 24.1094 14.7403 24.3693 15.1472C24.6248 15.5468 24.638 15.9618 24.4148 16.3762C24.1711 16.8276 23.7599 16.9833 23.2769 16.9833C20.3043 16.9833 17.331 16.984 14.3584 16.9796C13.2624 16.9773 12.6927 16.1657 13.0245 15.1005C13.208 14.512 13.396 13.9242 13.5648 13.3312C13.8489 12.335 13.2315 11.4996 12.2059 11.4981C8.91474 11.4922 5.6243 11.4922 2.33312 11.4937C1.62173 11.4937 1.17904 11.8065 0.949252 12.4855C0.743691 13.0925 0.560888 13.7078 0.370744 14.3208C0.244471 14.7284 0.123337 15.1376 0 15.546C0.0205561 15.5727 0.0403781 15.5994 0.0609342 15.6261C0.543269 14.7922 1.3222 14.8626 2.08351 14.8626C5.01936 14.8648 7.95595 14.8619 10.8918 14.8611C11.0386 14.8611 11.1862 14.8559 11.3323 14.8685C12.4196 14.9641 12.9114 15.6972 12.5972 16.7513C12.4063 17.3895 12.1905 18.021 12.0261 18.6659C11.8249 19.4545 12.3219 20.1987 13.117 20.3396C13.3446 20.3796 13.5788 20.3959 13.81 20.3966C15.6204 20.4011 17.4316 20.3981 19.242 20.3981C20.3917 20.3981 21.5421 20.4033 22.6917 20.3952C23.5661 20.3885 24.0609 20.0861 24.2907 19.3604C24.9537 17.2671 25.6078 15.1702 26.2377 13.0666C26.5218 12.1148 25.9213 11.2913 24.9404 11.2165Z" fill="#545554"/>
<path d="M26.5407 5.476C23.7039 5.52567 20.865 5.46414 18.0282 5.50269C16.9439 5.51677 16.1525 4.66287 16.6003 3.50581C16.8264 2.92098 17.0004 2.31168 17.148 1.70091C17.3558 0.84256 16.7589 0.016086 15.9154 0.0116387C12.5273 -0.00392723 9.13919 -0.00170353 5.7511 0.00570879C5.18067 0.00719126 4.74826 0.311838 4.56472 0.844784C4.18737 1.93884 3.86214 3.05143 3.51562 4.15661C3.91427 3.52286 4.49571 3.36127 5.19609 3.36571C7.60556 3.38128 10.015 3.37016 12.4252 3.36942C13.2328 3.36942 14.0396 3.3583 14.8472 3.37164C15.9014 3.38869 16.4807 4.19071 16.1789 5.20249C16.0101 5.76953 15.8251 6.33287 15.6503 6.89843C15.3031 8.02139 15.908 8.85306 17.0724 8.85306C19.8489 8.85306 22.6255 8.84935 25.402 8.85009C26.4555 8.85009 26.8901 9.24146 27.0245 10.2918C27.0259 10.3029 27.0568 10.3111 27.0905 10.3303C27.3879 9.37044 27.6456 8.40313 27.9884 7.46769C28.3804 6.39661 27.578 5.45747 26.5407 5.476Z" fill="#545554"/>
<path d="M105.081 9.37413C105.735 8.52986 106.39 7.68486 107.044 6.84133C107.316 6.49147 107.595 6.1468 107.857 5.78953C107.993 5.60496 108.147 5.51453 108.381 5.51823C109.041 5.52935 109.702 5.5212 110.363 5.52342C110.458 5.52342 110.581 5.49007 110.635 5.58272C110.706 5.7028 110.586 5.7873 110.522 5.86884C109.612 7.03109 108.706 8.19779 107.779 9.34744C107.573 9.60391 107.563 9.78403 107.744 10.059C108.704 11.52 109.646 12.9943 110.591 14.4657C110.655 14.565 110.781 14.6658 110.723 14.7911C110.662 14.9215 110.507 14.8778 110.389 14.8785C109.741 14.8822 109.092 14.8704 108.444 14.8852C108.174 14.8911 108.023 14.774 107.887 14.5524C107.268 13.5458 106.629 12.5503 106.008 11.5437C105.881 11.3377 105.832 11.288 105.629 11.5015C105.142 12.0144 104.896 12.577 104.987 13.2982C105.034 13.6748 104.98 14.0639 104.999 14.4456C105.015 14.7629 104.907 14.8963 104.582 14.8844C104.093 14.8667 103.603 14.8659 103.115 14.8852C102.774 14.8985 102.676 14.7607 102.678 14.4278C102.689 11.8958 102.684 9.36301 102.684 6.83096C102.684 6.52186 102.696 6.21277 102.681 5.90442C102.666 5.61089 102.79 5.51156 103.071 5.51898C103.584 5.53232 104.099 5.53306 104.613 5.51898C104.898 5.51082 105.003 5.61978 105 5.90812C104.99 6.92065 104.996 7.93391 104.996 8.94718C104.996 9.0806 104.996 9.21402 104.996 9.3467C105.023 9.35485 105.051 9.36449 105.081 9.37413Z" fill="#545554"/>
<path d="M87.143 5.52241C87.4367 5.52167 87.7304 5.52167 88.024 5.52241C88.6297 5.52241 88.6312 5.52241 88.8191 6.08426C89.612 8.45917 90.4041 10.8348 91.197 13.2097C91.3416 13.6426 91.4855 14.0755 91.6389 14.5054C91.7278 14.753 91.6771 14.8819 91.3937 14.8797C90.7822 14.8753 90.1707 14.8745 89.5584 14.8797C89.3345 14.8819 89.2332 14.7656 89.1737 14.5625C89.0415 14.1125 88.8874 13.6693 88.7589 13.2186C88.6958 12.997 88.5908 12.8932 88.347 12.8962C87.5277 12.908 86.7077 12.9066 85.8884 12.8969C85.6681 12.8947 85.5514 12.9785 85.4905 13.189C85.3591 13.6389 85.2034 14.0822 85.0801 14.5336C85.0089 14.7952 84.862 14.8864 84.6029 14.8812C84.0405 14.8701 83.4774 14.8812 82.9144 14.8768C82.5297 14.8738 82.5054 14.8397 82.6288 14.4683C83.4312 12.0571 84.2365 9.64737 85.0412 7.23688C85.1975 6.76916 85.3583 6.30218 85.5052 5.8315C85.5742 5.61062 85.696 5.51055 85.931 5.51796C86.3347 5.5313 86.7393 5.52241 87.143 5.52241ZM87.1614 8.09226C87.1328 8.09226 87.1041 8.09226 87.0755 8.09226C86.787 9.02695 86.497 9.96165 86.2107 10.8971C86.1644 11.0476 86.2525 11.0965 86.3861 11.0965C86.8619 11.0965 87.3369 11.0935 87.8126 11.098C88.0548 11.1002 88.0637 10.9757 88.0035 10.7866C87.853 10.3182 87.7105 9.84824 87.5637 9.3783C87.4301 8.94987 87.2957 8.52143 87.1614 8.09226Z" fill="#545554"/>
<path d="M67.0228 11.674C67.1205 11.6732 67.2189 11.6814 67.3165 11.6725C67.768 11.6303 68.1564 11.6429 68.2379 12.2507C68.2716 12.5027 68.5095 12.691 68.7466 12.8058C69.3391 13.0927 69.9506 13.109 70.557 12.8592C70.8573 12.7354 71.0533 12.5101 71.0643 12.1543C71.0753 11.7904 70.8735 11.588 70.5747 11.4464C70.049 11.1981 69.4808 11.098 68.9221 10.9691C68.4192 10.8534 67.9339 10.6963 67.4677 10.471C65.683 9.61039 65.8732 7.43933 66.8136 6.49722C67.7702 5.53881 68.9529 5.32237 70.2274 5.40761C71.0269 5.46098 71.7596 5.71818 72.3792 6.24817C72.9078 6.70032 73.1875 7.28886 73.2815 7.97524C73.3196 8.25468 73.222 8.38588 72.9239 8.37698C72.4232 8.36216 71.9211 8.36661 71.4204 8.3755C71.2038 8.37921 71.0827 8.30879 71.0335 8.08197C70.9784 7.82921 70.8103 7.63798 70.582 7.52605C70.0468 7.26514 69.4977 7.24735 68.9544 7.49937C68.696 7.61945 68.5286 7.82106 68.5102 8.12793C68.4919 8.43999 68.6483 8.63864 68.8957 8.78985C69.215 8.98554 69.574 9.06411 69.9315 9.14638C70.5387 9.28648 71.1524 9.40211 71.7258 9.66376C72.7705 10.1411 73.4275 10.9016 73.4283 12.1098C73.4297 13.3143 72.8637 14.1853 71.7559 14.6033C70.2105 15.1859 68.6534 15.1771 67.1924 14.3313C66.3496 13.8436 65.9613 13.0267 65.904 12.0491C65.8886 11.7837 65.9782 11.6569 66.2549 11.671C66.5082 11.6851 66.7659 11.6747 67.0228 11.674Z" fill="#545554"/>
<path d="M34.4263 10.1953C34.4263 8.78772 34.4322 7.37938 34.4219 5.97178C34.4197 5.6486 34.5085 5.51147 34.8587 5.5137C36.7301 5.52852 38.6021 5.52704 40.4735 5.51444C40.8061 5.51222 40.9375 5.61673 40.9147 5.95992C40.8912 6.31645 40.8956 6.67669 40.9132 7.03397C40.9279 7.32675 40.8141 7.42163 40.5293 7.41867C39.4038 7.40755 38.2784 7.42608 37.1529 7.40755C36.813 7.40162 36.6926 7.50836 36.7191 7.85006C36.744 8.18139 36.7396 8.51717 36.7205 8.84999C36.7029 9.145 36.8182 9.23543 37.1023 9.23172C38.1176 9.21912 39.1329 9.23913 40.1483 9.2206C40.5036 9.21393 40.6321 9.3392 40.6086 9.69128C40.5865 10.0108 40.5829 10.3347 40.6093 10.6541C40.6416 11.0418 40.4764 11.1359 40.1182 11.1285C39.1278 11.1078 38.1367 11.1315 37.1456 11.1152C36.8351 11.11 36.6941 11.1878 36.7191 11.5273C36.7448 11.8712 36.7396 12.2196 36.7205 12.5643C36.7036 12.8623 36.8255 12.9475 37.106 12.9446C38.2064 12.9334 39.3077 12.9394 40.4089 12.9408C40.9022 12.9416 40.9074 12.9483 40.9088 13.4301C40.9103 13.7881 40.8971 14.1468 40.9125 14.5041C40.9243 14.7761 40.8156 14.8836 40.5498 14.8799C39.975 14.8725 39.4002 14.8784 38.8253 14.8784C37.5655 14.8784 36.3057 14.8792 35.0452 14.8784C34.4256 14.8784 34.4256 14.8777 34.4249 14.2336C34.4256 12.8882 34.4263 11.5414 34.4263 10.1953Z" fill="#545554"/>
<path d="M43.9198 5.52019C44.9285 5.21406 45.4233 5.77517 45.8014 6.61054C46.029 7.1131 46.3439 7.57637 46.62 8.05669C46.8395 8.4399 46.8395 8.43916 47.0516 8.07225C47.4774 7.33695 47.9128 6.60684 48.3246 5.86338C48.4693 5.60247 48.6484 5.50462 48.9413 5.51426C49.5397 5.53353 50.1395 5.52686 50.7385 5.51722C51.0329 5.51278 51.0843 5.59431 50.9265 5.85523C50.1358 7.16128 49.3635 8.47919 48.5669 9.78153C48.3914 10.0684 48.3753 10.2782 48.5654 10.5761C49.3862 11.8629 50.1784 13.169 50.9771 14.4698C51.201 14.8338 51.1775 14.8753 50.7583 14.8775C50.1468 14.8812 49.5352 14.8723 48.9237 14.8805C48.6763 14.8842 48.5185 14.793 48.3929 14.5714C47.9451 13.7775 47.473 12.9977 47.0252 12.2039C46.8754 11.9378 46.791 11.9563 46.6493 12.2076C46.2 13.0007 45.7309 13.782 45.2809 14.5743C45.1649 14.7782 45.0232 14.8827 44.7853 14.8797C44.1495 14.8723 43.513 14.8827 42.8773 14.8753C42.5322 14.8708 42.5051 14.8138 42.6879 14.5143C43.5101 13.1697 44.3294 11.8236 45.1641 10.4864C45.3014 10.267 45.3044 10.1069 45.17 9.88605C44.3705 8.5711 43.5843 7.24726 42.7972 5.92416C42.737 5.82261 42.6049 5.71958 42.6688 5.59802C42.7437 5.45496 42.9118 5.5276 43.0381 5.52315C43.3324 5.51426 43.6261 5.52019 43.9198 5.52019Z" fill="#545554"/>
<path d="M99.8713 8.96436C99.7854 8.96436 99.6996 8.95769 99.6144 8.96584C99.1005 9.01551 98.754 8.96065 98.5271 8.32838C98.1042 7.14982 96.136 7.20393 95.465 8.16754C95.1978 8.55149 95.0238 8.97029 94.9746 9.42985C94.8711 10.3853 94.8446 11.3363 95.44 12.1717C95.8769 12.7847 96.5067 12.9818 97.2152 12.9151C97.9126 12.8492 98.4456 12.5119 98.6681 11.8003C98.7349 11.5868 98.8523 11.5112 99.0689 11.5164C99.6188 11.5283 100.17 11.5372 100.72 11.5194C101.078 11.5075 101.063 11.7114 101.006 11.9478C100.733 13.0775 100.105 13.9477 99.0799 14.4814C96.8144 15.6599 93.0629 14.9127 92.615 11.0376C92.4697 9.78046 92.5688 8.56261 93.2207 7.45595C94.1523 5.87342 95.606 5.29526 97.3606 5.4057C98.417 5.47242 99.3648 5.83488 100.106 6.64356C100.602 7.18614 100.885 7.83028 101.02 8.55001C101.075 8.83909 101.017 8.9992 100.679 8.97103C100.411 8.94657 100.141 8.96436 99.8713 8.96436Z" fill="#545554"/>
<path d="M60.6233 5.52091C61.7847 5.52091 62.9468 5.52833 64.1082 5.51573C64.4203 5.51202 64.5575 5.60986 64.5407 5.93823C64.5216 6.30736 64.5282 6.67872 64.5385 7.04934C64.5458 7.31692 64.4415 7.42366 64.1706 7.41847C63.5106 7.40661 62.8492 7.43404 62.1899 7.40735C61.825 7.39253 61.7384 7.53114 61.7406 7.87655C61.7531 10.0372 61.7472 12.1979 61.7465 14.3586C61.7465 14.8656 61.7347 14.876 61.2341 14.8782C60.8552 14.8797 60.4757 14.879 60.0969 14.8782C59.4611 14.8775 59.4596 14.8775 59.4596 14.2512C59.4589 12.1772 59.4596 10.1025 59.4596 8.0285C59.4596 7.41476 59.4589 7.41476 58.8694 7.41402C58.2578 7.41402 57.6463 7.40364 57.0355 7.41773C56.7602 7.42366 56.6633 7.30728 56.6691 7.04563C56.6772 6.66315 56.6801 6.27994 56.6684 5.89746C56.6596 5.60616 56.7859 5.5135 57.0656 5.51573C58.2512 5.52684 59.4369 5.52091 60.6233 5.52091Z" fill="#545554"/>
<path d="M78.6294 5.52287C79.7908 5.52287 80.9523 5.53103 82.1137 5.51768C82.4264 5.51398 82.5608 5.60737 82.541 5.93944C82.5182 6.30858 82.5248 6.67994 82.5388 7.04981C82.549 7.31814 82.4521 7.42562 82.1798 7.42043C81.544 7.40783 80.9075 7.43673 80.2732 7.40931C79.9046 7.39374 79.7872 7.50937 79.7901 7.88814C79.8055 10.0362 79.7982 12.1843 79.7975 14.3317C79.7975 14.8594 79.7784 14.878 79.2674 14.8802C78.8394 14.8817 78.4107 14.8631 77.9841 14.8861C77.6229 14.9054 77.4937 14.7846 77.4966 14.4036C77.5121 12.2436 77.5047 10.0829 77.504 7.92298C77.504 7.4182 77.5025 7.4182 76.9982 7.41746C76.3624 7.41672 75.7266 7.40857 75.0908 7.42043C74.8236 7.42562 74.712 7.32555 74.7201 7.05426C74.7311 6.67178 74.7326 6.28857 74.7194 5.90609C74.7091 5.61701 74.8273 5.5162 75.1099 5.51842C76.2824 5.5288 77.4555 5.52287 78.6294 5.52287Z" fill="#545554"/>
<path d="M52.7645 10.1709C52.7645 8.77668 52.7733 7.38168 52.7579 5.98742C52.7542 5.63978 52.8541 5.49673 53.2138 5.51526C53.7013 5.54046 54.1917 5.53082 54.6799 5.51822C54.9508 5.51155 55.08 5.59309 55.0793 5.89403C55.0719 8.76927 55.0727 11.6445 55.0786 14.5205C55.0793 14.8044 54.9508 14.8844 54.699 14.8807C54.1858 14.8741 53.6719 14.8681 53.1588 14.883C52.8541 14.8918 52.7564 14.7658 52.7586 14.4656C52.7704 13.0343 52.7645 11.6023 52.7645 10.1709Z" fill="#545554"/>
</g>
</svg>
