<svg width="83" height="12" viewBox="0 0 83 12" fill="none" xmlns="http://www.w3.org/2000/svg">
<g opacity="0.5">
<path d="M6.28517 0.253906H9.08368C9.24337 0.253906 9.32334 0.333873 9.32334 0.493559V10.9531C9.32334 11.1026 9.24337 11.1773 9.08368 11.1773H6.34702C6.21293 11.1773 6.10212 11.1077 6.01459 10.9685L3.26246 6.04414V10.9531C3.26246 11.1026 3.18249 11.1773 3.0228 11.1773H0.216467C0.154702 11.1773 0.103079 11.1554 0.0618478 11.1115C0.0206161 11.0678 0 11.0149 0 10.9531V0.493559C0 0.333873 0.0721557 0.253906 0.216467 0.253906H2.96095C3.14125 0.253906 3.26246 0.323483 3.3243 0.462636L6.06097 5.3793V0.493559C6.06097 0.431713 6.08541 0.376434 6.13446 0.32739C6.18334 0.278429 6.23363 0.253906 6.28517 0.253906Z" fill="#545554"/>
<path d="M14.6238 7.04132H16.3324L15.4742 4.03415L14.6238 7.04132ZM20.909 11.1772H17.7702C17.6105 11.1772 17.4997 11.1076 17.4378 10.9685L16.9662 9.30643H13.9899L13.5106 10.9685C13.4487 11.1076 13.3378 11.1772 13.1781 11.1772H10.0472C10.0008 11.1772 9.9634 11.1644 9.93506 11.1385C9.90671 11.1128 9.89258 11.0793 9.89258 11.038C9.89258 11.0071 9.89516 10.9839 9.90031 10.9685L13.4796 0.462636C13.5415 0.323483 13.6678 0.253906 13.8585 0.253906H17.09C17.2805 0.253906 17.4069 0.323483 17.4687 0.462636L21.0481 10.9685L21.0636 11.0303C21.0636 11.0716 21.0493 11.1064 21.0211 11.1347C20.9927 11.163 20.9554 11.1772 20.909 11.1772Z" fill="#545554"/>
<path d="M21.1289 3.54653C21.1289 2.85077 21.2951 2.23497 21.6275 1.69889C21.9599 1.16297 22.4289 0.748091 23.0345 0.454323C23.64 0.160555 24.3397 0.0136719 25.1334 0.0136719C25.6951 0.0136719 26.3033 0.119325 26.9579 0.330632C27.6123 0.542021 28.1871 0.817668 28.6819 1.15782C28.7849 1.21967 28.8365 1.28409 28.8365 1.35109C28.8365 1.38193 28.8261 1.41036 28.8056 1.43613L27.8083 3.67022C27.7722 3.78361 27.7181 3.8403 27.6459 3.8403C27.5995 3.8403 27.5582 3.8275 27.5222 3.80165C26.6512 3.30181 25.909 3.02608 25.2958 2.97446C25.0535 2.9797 24.8576 3.03381 24.7082 3.1368C24.5587 3.23996 24.484 3.36873 24.484 3.52334C24.484 3.79658 24.8706 4.06191 25.6437 4.31961C26.4167 4.57214 27.1358 4.94322 27.8005 5.43283C28.151 5.68537 28.4331 6.02934 28.6471 6.46484C28.8608 6.90042 28.9679 7.38355 28.9679 7.91431C28.9679 8.60501 28.7978 9.21574 28.4577 9.7465C28.1175 10.2773 27.6394 10.6884 27.0236 10.9795C26.4076 11.2706 25.6978 11.4163 24.8938 11.4163C24.2289 11.4163 23.5744 11.3208 22.9302 11.1302C22.2859 10.9396 21.7706 10.6871 21.384 10.3727C21.2809 10.2953 21.2294 10.2232 21.2294 10.1562C21.2294 10.1305 21.2371 10.1073 21.2526 10.0866L22.2498 7.85247C22.2859 7.73917 22.34 7.68239 22.4122 7.68239C22.4482 7.68239 22.4895 7.69785 22.5359 7.72878C23.3295 8.17716 24.0639 8.42978 24.7392 8.48639C24.9866 8.48639 25.1876 8.43102 25.3422 8.32022C25.4968 8.20941 25.5741 8.07408 25.5741 7.91431C25.5637 7.64124 25.1746 7.37067 24.4067 7.10259C23.6336 6.83974 22.925 6.47133 22.2808 5.99709C21.9407 5.73948 21.6635 5.39551 21.4497 4.96508C21.2358 4.53482 21.1289 4.06191 21.1289 3.54653Z" fill="#545554"/>
<path d="M35.9558 0.254589H38.9167C39.0764 0.254589 39.1563 0.334556 39.1563 0.494241V10.9538C39.1563 11.1033 39.0764 11.1779 38.9167 11.1779H35.9558C35.8939 11.1779 35.8424 11.1561 35.8011 11.1122C35.7598 11.0685 35.7393 11.0156 35.7393 10.9538V7.41308H33.5206V10.9538C33.5206 11.1033 33.4406 11.1779 33.2809 11.1779H30.32C30.2684 11.1779 30.2196 11.1548 30.1732 11.1084C30.1267 11.062 30.1035 11.0105 30.1035 10.9538V0.494241C30.1035 0.432395 30.1267 0.375786 30.1732 0.324164C30.2196 0.272709 30.2684 0.249518 30.32 0.254589H33.2809C33.4406 0.254589 33.5206 0.334556 33.5206 0.494241V4.62237H35.7393V0.494241C35.7341 0.334556 35.8062 0.254589 35.9558 0.254589Z" fill="#545554"/>
<path d="M47.9489 5.71293C47.9489 5.23362 47.8612 4.80336 47.686 4.4219C47.5107 4.0406 47.2582 3.74159 46.9284 3.52513C46.5985 3.30875 46.2145 3.20052 45.7765 3.20052C45.3486 3.20052 44.9712 3.30485 44.644 3.51358C44.3166 3.72231 44.0629 4.01741 43.8825 4.39871C43.702 4.78017 43.6119 5.21816 43.6119 5.71293C43.6119 6.2077 43.702 6.64577 43.8825 7.02715C44.0629 7.40862 44.3166 7.70488 44.644 7.91619C44.9712 8.12758 45.3486 8.23307 45.7765 8.23307C46.2043 8.23307 46.5817 8.12758 46.9091 7.91619C47.2363 7.70488 47.4914 7.40862 47.6744 7.02715C47.8573 6.64577 47.9489 6.2077 47.9489 5.71293ZM51.3968 5.7052C51.3968 6.84428 51.1622 7.84404 50.6933 8.70464C50.2243 9.56541 49.5633 10.2303 48.7103 10.6992C47.8573 11.1682 46.8716 11.4027 45.7533 11.4027C44.6349 11.4027 43.6531 11.1657 42.8079 10.6914C41.9625 10.2174 41.3093 9.54862 40.8481 8.68536C40.3868 7.82217 40.1562 6.82616 40.1562 5.69747C40.1562 4.56371 40.3882 3.56645 40.852 2.70576C41.3158 1.84507 41.973 1.1789 42.8233 0.707404C43.6737 0.235829 44.6606 0 45.7842 0C46.9026 0 47.8857 0.237159 48.7335 0.711228C49.5813 1.18546 50.2372 1.85413 50.701 2.71731C51.1649 3.58058 51.3968 4.57651 51.3968 5.7052Z" fill="#545554"/>
<path d="M58.0369 0.253906H60.7582C60.8303 0.253906 60.8934 0.279758 60.9475 0.331213C61.0017 0.382834 61.0287 0.447174 61.0287 0.524481V7.12636C61.0287 8.52829 60.6588 9.5913 59.9193 10.3152C59.1797 11.0394 58.0987 11.4014 56.6763 11.4014C55.2538 11.4014 54.1727 11.0408 53.4332 10.3192C52.6936 9.59762 52.3109 8.53336 52.2852 7.12636V0.524481C52.2852 0.452411 52.3123 0.389235 52.3664 0.33512C52.4205 0.281005 52.4835 0.253906 52.5557 0.253906H55.2848C55.3568 0.253906 55.4187 0.279758 55.4703 0.331213C55.5218 0.382834 55.5476 0.447174 55.5476 0.524481V7.4124C55.5476 7.77325 55.6468 8.05538 55.8452 8.25896C56.0436 8.46262 56.3155 8.56428 56.6608 8.56428C57.006 8.56428 57.2766 8.46378 57.4725 8.26278C57.6683 8.06178 57.7663 7.78356 57.7663 7.42786V0.524481C57.7663 0.452411 57.7933 0.389235 57.8475 0.33512C57.9016 0.281005 57.9647 0.253906 58.0369 0.253906Z" fill="#545554"/>
<path d="M61.8242 3.54653C61.8242 2.85077 61.9904 2.23497 62.3228 1.69889C62.6553 1.16297 63.1242 0.748091 63.7299 0.454323C64.3354 0.160555 65.035 0.0136719 65.8288 0.0136719C66.3905 0.0136719 66.9986 0.119325 67.6532 0.330632C68.3076 0.542021 68.8824 0.817668 69.3772 1.15782C69.4802 1.21967 69.5318 1.28409 69.5318 1.35109C69.5318 1.38193 69.5214 1.41036 69.5009 1.43613L68.5036 3.67022C68.4675 3.78361 68.4134 3.8403 68.3413 3.8403C68.2948 3.8403 68.2535 3.8275 68.2176 3.80165C67.3465 3.30181 66.6043 3.02608 65.9911 2.97446C65.7488 2.9797 65.553 3.03381 65.4036 3.1368C65.254 3.23996 65.1794 3.36873 65.1794 3.52334C65.1794 3.79658 65.5659 4.06191 66.339 4.31961C67.1121 4.57214 67.8311 4.94322 68.4959 5.43283C68.8463 5.68537 69.1285 6.02934 69.3424 6.46484C69.5562 6.90042 69.6632 7.38355 69.6632 7.91431C69.6632 8.60501 69.4931 9.21574 69.153 9.7465C68.8128 10.2773 68.3347 10.6884 67.7189 10.9795C67.103 11.2706 66.3931 11.4163 65.5891 11.4163C64.9242 11.4163 64.2697 11.3208 63.6255 11.1302C62.9812 10.9396 62.4659 10.6871 62.0793 10.3727C61.9762 10.2953 61.9247 10.2232 61.9247 10.1562C61.9247 10.1305 61.9325 10.1073 61.9479 10.0866L62.9451 7.85247C62.9812 7.73917 63.0353 7.68239 63.1075 7.68239C63.1435 7.68239 63.1848 7.69785 63.2312 7.72878C64.0248 8.17716 64.7592 8.42978 65.4345 8.48639C65.6819 8.48639 65.8829 8.43102 66.0375 8.32022C66.1921 8.20941 66.2694 8.07408 66.2694 7.91431C66.259 7.64124 65.8699 7.37067 65.1021 7.10259C64.329 6.83974 63.6203 6.47133 62.9761 5.99709C62.636 5.73948 62.3589 5.39551 62.145 4.96508C61.9311 4.53482 61.8242 4.06191 61.8242 3.54653Z" fill="#545554"/>
<path d="M73.8148 6.97948V8.32462H78.1364C78.3012 8.32462 78.3784 8.3942 78.3682 8.53335V10.953C78.3682 11.0046 78.345 11.0548 78.2986 11.1038C78.2523 11.1528 78.1981 11.1772 78.1364 11.1772H70.7689C70.64 11.1772 70.5575 11.0974 70.5215 10.9375V0.478098C70.5215 0.328637 70.5936 0.253906 70.738 0.253906H77.9431C78.0152 0.253906 78.0757 0.275852 78.1247 0.319576C78.1736 0.363467 78.1981 0.416252 78.1981 0.478098V2.86681C78.1981 3.02658 78.1131 3.10646 77.9431 3.10646H73.8148V4.35111H77.17C77.2318 4.35111 77.2832 4.37306 77.3245 4.41678C77.3658 4.46067 77.3812 4.50839 77.3709 4.55984L77.1545 6.77848C77.1287 6.91763 77.0385 6.98471 76.884 6.97948H73.8148Z" fill="#545554"/>
<path d="M80.1432 8.75578C78.4976 9.7725 79.9289 12.1067 81.6234 11.2254C83.2719 10.2138 81.8323 7.87265 80.1432 8.75578Z" fill="#545554"/>
</g>
</svg>
