<svg width="145" height="20" viewBox="0 0 145 20" fill="none" xmlns="http://www.w3.org/2000/svg">
<path d="M11.007 0.445312H15.908C16.1876 0.445312 16.3277 0.58536 16.3277 0.865019V19.1829C16.3277 19.4448 16.1876 19.5755 15.908 19.5755H11.1153C10.8805 19.5755 10.6864 19.4537 10.5331 19.21L5.71343 10.5858V19.1829C5.71343 19.4448 5.57338 19.5755 5.29372 19.5755H0.379091C0.270925 19.5755 0.18052 19.5372 0.108312 19.4604C0.0361043 19.3838 0 19.2912 0 19.1829V0.865019C0 0.58536 0.126364 0.445312 0.379091 0.445312H5.18541C5.50117 0.445312 5.71343 0.567163 5.82174 0.810864L10.6144 9.42148V0.865019C10.6144 0.756707 10.6572 0.659898 10.7431 0.574006C10.8287 0.488259 10.9167 0.445312 11.007 0.445312Z" fill="#545554"/>
<path d="M25.6216 12.3322H28.6137L27.1109 7.0657L25.6216 12.3322ZM36.6286 19.5754H31.1318C30.852 19.5754 30.658 19.4535 30.5496 19.2098L29.7238 16.2991H24.5114L23.672 19.2098C23.5637 19.4535 23.3695 19.5754 23.0898 19.5754H17.6067C17.5255 19.5754 17.46 19.553 17.4103 19.5077C17.3607 19.4627 17.3359 19.404 17.3359 19.3317C17.3359 19.2775 17.3405 19.2369 17.3495 19.2098L23.6179 0.810864C23.7262 0.567163 23.9473 0.445312 24.2813 0.445312H29.9405C30.2742 0.445312 30.4955 0.567163 30.6038 0.810864L36.8722 19.2098L36.8994 19.3181C36.8994 19.3905 36.8744 19.4515 36.8249 19.501C36.7752 19.5506 36.7099 19.5754 36.6286 19.5754Z" fill="#545554"/>
<path d="M36.9922 6.21058C36.9922 4.99208 37.2832 3.91362 37.8654 2.97478C38.4475 2.03622 39.2688 1.30963 40.3295 0.795156C41.3899 0.280676 42.6151 0.0234375 44.0052 0.0234375C44.9889 0.0234375 46.054 0.208469 47.2002 0.578533C48.3464 0.948743 49.3529 1.43149 50.2194 2.0272C50.3998 2.13551 50.4902 2.24833 50.4902 2.36567C50.4902 2.41968 50.472 2.46947 50.4361 2.5146L48.6895 6.4272C48.6263 6.62578 48.5316 6.72506 48.4052 6.72506C48.324 6.72506 48.2516 6.70264 48.1886 6.65737C46.6632 5.78199 45.3635 5.29911 44.2895 5.2087C43.8652 5.21787 43.5222 5.31264 43.2606 5.49302C42.9987 5.67368 42.8679 5.89919 42.8679 6.16996C42.8679 6.64849 43.5449 7.11318 44.8988 7.56447C46.2525 8.00675 47.5118 8.65661 48.676 9.51408C49.2898 9.95635 49.7839 10.5588 50.1586 11.3215C50.5329 12.0843 50.7204 12.9304 50.7204 13.8599C50.7204 15.0696 50.4225 16.1391 49.8268 17.0687C49.2311 17.9983 48.3939 18.7182 47.3154 19.228C46.2367 19.7379 44.9935 19.9929 43.5855 19.9929C42.4212 19.9929 41.2749 19.8258 40.1468 19.492C39.0184 19.1582 38.1159 18.7159 37.439 18.1653C37.2583 18.0298 37.1682 17.9036 37.1682 17.7862C37.1682 17.7411 37.1817 17.7005 37.2088 17.6644L38.9552 13.7516C39.0184 13.5532 39.1131 13.4538 39.2396 13.4538C39.3027 13.4538 39.3749 13.4808 39.4561 13.535C40.846 14.3203 42.1322 14.7627 43.3147 14.8618C43.748 14.8618 44.1 14.7649 44.3708 14.5708C44.6415 14.3767 44.7769 14.1397 44.7769 13.8599C44.7587 13.3817 44.0773 12.9078 42.7325 12.4383C41.3787 11.978 40.1376 11.3328 39.0095 10.5023C38.4138 10.0511 37.9284 9.44871 37.554 8.6949C37.1794 7.94138 36.9922 7.11318 36.9922 6.21058Z" fill="#545554"/>
<path d="M62.9754 0.446507H68.1608C68.4405 0.446507 68.5804 0.586555 68.5804 0.866214V19.1841C68.5804 19.446 68.4405 19.5767 68.1608 19.5767H62.9754C62.8671 19.5767 62.7768 19.5384 62.7046 19.4616C62.6323 19.385 62.5963 19.2924 62.5963 19.1841V12.9833H58.7108V19.1841C58.7108 19.446 58.5707 19.5767 58.2911 19.5767H53.1057C53.0154 19.5767 52.9298 19.5361 52.8486 19.4549C52.7672 19.3736 52.7266 19.2835 52.7266 19.1841V0.866214C52.7266 0.757902 52.7672 0.658762 52.8486 0.568356C52.9298 0.478242 53.0154 0.437627 53.1057 0.446507H58.2911C58.5707 0.446507 58.7108 0.586555 58.7108 0.866214V8.09586H62.5963V0.866214C62.5873 0.586555 62.7135 0.446507 62.9754 0.446507Z" fill="#545554"/>
<path d="M83.9751 10.0051C83.9751 9.16571 83.8215 8.41219 83.5148 7.74412C83.2077 7.07635 82.7655 6.5527 82.1879 6.17361C81.6103 5.79466 80.9377 5.60512 80.1706 5.60512C79.4213 5.60512 78.7604 5.78782 78.1874 6.15337C77.614 6.51892 77.1697 7.03573 76.8537 7.70351C76.5377 8.37157 76.3799 9.13863 76.3799 10.0051C76.3799 10.8716 76.5377 11.6388 76.8537 12.3067C77.1697 12.9748 77.614 13.4937 78.1874 13.8637C78.7604 14.2339 79.4213 14.4187 80.1706 14.4187C80.9198 14.4187 81.5809 14.2339 82.1542 13.8637C82.7272 13.4937 83.1739 12.9748 83.4944 12.3067C83.8148 11.6388 83.9751 10.8716 83.9751 10.0051ZM90.0133 9.99159C90.0133 11.9865 89.6025 13.7374 88.7814 15.2445C87.9599 16.752 86.8024 17.9164 85.3086 18.7376C83.8148 19.559 82.0885 19.9696 80.13 19.9696C78.1714 19.9696 76.4521 19.5546 74.9718 18.7241C73.4914 17.8938 72.3475 16.7226 71.5398 15.2108C70.732 13.6991 70.3281 11.9547 70.3281 9.97805C70.3281 7.99248 70.7343 6.24596 71.5466 4.73863C72.3588 3.23129 73.5098 2.06461 74.9989 1.23889C76.4882 0.41301 78.2165 0 80.1842 0C82.1428 0 83.8644 0.415339 85.3492 1.24558C86.8338 2.07612 87.9826 3.24716 88.7948 4.75886C89.6071 6.27071 90.0133 8.0149 90.0133 9.99159Z" fill="#545554"/>
<path d="M101.635 0.445312H106.401C106.527 0.445312 106.638 0.490587 106.733 0.580701C106.827 0.671106 106.875 0.783784 106.875 0.919174V12.4811C106.875 14.9363 106.227 16.798 104.932 18.0659C103.637 19.334 101.744 19.968 99.2526 19.968C96.7614 19.968 94.868 19.3365 93.5731 18.0727C92.2777 16.8091 91.6076 14.9452 91.5625 12.4811V0.919174C91.5625 0.792956 91.61 0.682315 91.7047 0.587543C91.7995 0.49277 91.9099 0.445312 92.0364 0.445312H96.8156C96.9418 0.445312 97.0501 0.490587 97.1405 0.580701C97.2307 0.671106 97.2759 0.783784 97.2759 0.919174V12.9821C97.2759 13.614 97.4496 14.1081 97.7971 14.4647C98.1445 14.8213 98.6207 14.9994 99.2254 14.9994C99.83 14.9994 100.304 14.8234 100.647 14.4714C100.99 14.1193 101.161 13.6321 101.161 13.0091V0.919174C101.161 0.792956 101.209 0.682315 101.304 0.587543C101.398 0.49277 101.509 0.445312 101.635 0.445312Z" fill="#545554"/>
<path d="M108.273 6.21058C108.273 4.99208 108.564 3.91362 109.147 2.97478C109.729 2.03622 110.55 1.30963 111.611 0.795156C112.671 0.280676 113.896 0.0234375 115.286 0.0234375C116.27 0.0234375 117.335 0.208469 118.481 0.578533C119.628 0.948743 120.634 1.43149 121.501 2.0272C121.681 2.13551 121.771 2.24833 121.771 2.36567C121.771 2.41968 121.753 2.46947 121.717 2.5146L119.971 6.4272C119.908 6.62578 119.813 6.72506 119.687 6.72506C119.605 6.72506 119.533 6.70264 119.47 6.65737C117.944 5.78199 116.645 5.29911 115.571 5.2087C115.146 5.21787 114.804 5.31264 114.542 5.49302C114.28 5.67368 114.149 5.89919 114.149 6.16996C114.149 6.64849 114.826 7.11318 116.18 7.56447C117.534 8.00675 118.793 8.65661 119.957 9.51408C120.571 9.95635 121.065 10.5588 121.44 11.3215C121.814 12.0843 122.002 12.9304 122.002 13.8599C122.002 15.0696 121.704 16.1391 121.108 17.0687C120.512 17.9983 119.675 18.7182 118.597 19.228C117.518 19.7379 116.275 19.9929 114.867 19.9929C113.702 19.9929 112.556 19.8258 111.428 19.492C110.3 19.1582 109.397 18.7159 108.72 18.1653C108.54 18.0298 108.449 17.9036 108.449 17.7862C108.449 17.7411 108.463 17.7005 108.49 17.6644L110.236 13.7516C110.3 13.5532 110.394 13.4538 110.521 13.4538C110.584 13.4538 110.656 13.4808 110.737 13.535C112.127 14.3203 113.413 14.7627 114.596 14.8618C115.029 14.8618 115.381 14.7649 115.652 14.5708C115.923 14.3767 116.058 14.1397 116.058 13.8599C116.04 13.3817 115.359 12.9078 114.014 12.4383C112.66 11.978 111.419 11.3328 110.291 10.5023C109.695 10.0511 109.21 9.44871 108.835 8.6949C108.461 7.94138 108.273 7.11318 108.273 6.21058Z" fill="#545554"/>
<path d="M129.275 12.2239V14.5797H136.844C137.132 14.5797 137.267 14.7015 137.25 14.9452V19.1827C137.25 19.2732 137.209 19.3611 137.128 19.4468C137.046 19.5327 136.952 19.5754 136.844 19.5754H123.941C123.715 19.5754 123.571 19.4356 123.508 19.1557V0.837942C123.508 0.576189 123.634 0.445312 123.887 0.445312H136.505C136.631 0.445312 136.737 0.483746 136.823 0.560321C136.909 0.637187 136.952 0.72963 136.952 0.837942V5.02132C136.952 5.30113 136.803 5.44103 136.505 5.44103H129.275V7.6208H135.151C135.259 7.6208 135.349 7.65923 135.422 7.73581C135.494 7.81267 135.521 7.89623 135.503 7.98635L135.124 11.8719C135.079 12.1156 134.921 12.2331 134.65 12.2239H129.275Z" fill="#545554"/>
<path d="M140.359 15.3341C137.478 17.1147 139.984 21.2026 142.952 19.6591C145.839 17.8876 143.318 13.7875 140.359 15.3341Z" fill="#545554"/>
</svg>
