<svg width="117" height="21" viewBox="0 0 117 21" fill="none" xmlns="http://www.w3.org/2000/svg">
<g opacity="0.5">
<path fill-rule="evenodd" clip-rule="evenodd" d="M3.79102 17.9686C4.47635 15.2434 5.16169 12.5193 5.84703 9.79648L6.55309 13.254C10.2444 10.7187 15.5856 8.09084 19.8367 6.8125C13.4674 10.3342 8.03473 14.1585 3.79102 17.9686Z" fill="#545554"/>
<path fill-rule="evenodd" clip-rule="evenodd" d="M12.5007 6.42018L17.4761 6.78338L14.3738 8.05104L11.4434 7.83739L9.80446 3.93472L8.1655 7.83739L3.84496 8.15074L4.90223 9.01602L4.49615 10.6326L0 6.93294L7.10823 6.42018L9.80446 0L12.5007 6.42018Z" fill="#545554"/>
<path fill-rule="evenodd" clip-rule="evenodd" d="M15.7452 17.9701L14.2745 14.1387L12.4453 15.4384L15.7452 17.9701Z" fill="#545554"/>
<path fill-rule="evenodd" clip-rule="evenodd" d="M11.9082 12.8496L14.7691 13.9713L12.1314 15.8478L11.9082 12.8496Z" fill="#545554"/>
<path d="M30.4968 11.6474C30.9708 11.3277 31.3495 10.8916 31.5943 10.3833C31.8453 9.85598 31.9704 9.28016 31.9601 8.69905C31.9601 7.5311 31.6272 6.65157 30.9614 6.06048C30.2956 5.46938 29.3371 5.17383 28.0859 5.17383H22.7812V16.8747H24.7641V12.4557H27.325L30.098 16.8747H32.5674L29.3663 12.1246C29.7723 12.0412 30.1568 11.8789 30.4968 11.6474ZM24.7495 6.80469H27.8664C28.5981 6.80469 29.1359 6.98273 29.4432 7.33169C29.7756 7.75916 29.9392 8.28865 29.9041 8.82368C29.9267 9.10657 29.886 9.39086 29.785 9.65702C29.6839 9.92317 29.5249 10.1649 29.3188 10.3655C28.8108 10.7426 28.1777 10.9239 27.5408 10.8747H24.7495V6.80469Z" fill="#545554"/>
<path d="M42.4217 10.2548C42.1891 9.54261 41.7322 8.91974 41.1157 8.47436C40.4175 8.02653 39.5913 7.80585 38.756 7.84409C37.4317 7.84409 36.4037 8.23934 35.6647 9.02985C34.9257 9.82035 34.5672 10.9776 34.5672 12.5088C34.5396 13.3802 34.7212 14.2459 35.0977 15.037C35.4233 15.6977 35.9528 16.243 36.6122 16.5966C37.3251 16.9621 38.1225 17.1436 38.928 17.1236C39.5274 17.1287 40.1258 17.0727 40.7133 16.9563C41.2005 16.858 41.677 16.7149 42.1364 16.529V14.8269C41.9205 14.9301 41.6608 15.0405 41.3608 15.1509C41.0411 15.2678 40.7119 15.3583 40.3767 15.4215C40.001 15.4949 39.6185 15.5307 39.2353 15.5284C38.8535 15.5545 38.4705 15.5 38.1124 15.3684C37.7543 15.2369 37.4298 15.0315 37.161 14.7663C36.7176 14.2316 36.4738 13.5663 36.4695 12.8791H42.8205C42.8438 11.9885 42.7089 11.1007 42.4217 10.2548ZM37.4756 9.65655C37.8499 9.45466 38.2734 9.355 38.7012 9.36813C39.0051 9.34277 39.311 9.38577 39.5952 9.49382C39.8794 9.60187 40.1343 9.77207 40.3401 9.99127C40.6696 10.4409 40.8577 10.9741 40.8815 11.526H36.4915C36.5247 11.2241 36.5922 10.9268 36.6927 10.6393C36.8259 10.2318 37.1033 9.88356 37.4756 9.65655Z" fill="#545554"/>
<path d="M48.85 14.8569L45.9745 8.06641H43.9551L47.7561 16.8759H49.6475L53.4705 8.06641H51.506L48.85 14.8569Z" fill="#545554"/>
<path d="M55.7656 8.12109V16.8772H57.6753L57.657 8.12109H55.7656Z" fill="#545554"/>
<path d="M57.7277 5.00195H55.7148V6.66301H57.7277V5.00195Z" fill="#545554"/>
<path d="M68.1478 10.2547C67.9152 9.54252 67.4583 8.91964 66.8418 8.47427C66.142 8.02683 65.3148 7.80623 64.4785 7.844C63.1566 7.844 62.1261 8.23925 61.3872 9.02975C60.6482 9.82026 60.2823 10.9799 60.2896 12.5087C60.263 13.3804 60.4459 14.2461 60.8238 15.0369C61.1494 15.6976 61.6789 16.2429 62.3383 16.5965C63.0513 16.962 63.8486 17.1435 64.6541 17.1235C65.2524 17.1289 65.8495 17.0728 66.4357 16.9562C66.9243 16.8584 67.402 16.7154 67.8625 16.5289V14.8268C67.643 14.9301 67.3869 15.0404 67.0869 15.1508C66.7672 15.2677 66.438 15.3582 66.1028 15.4214C65.7258 15.4948 65.3422 15.5306 64.9577 15.5283C64.5765 15.5542 64.1941 15.4994 63.8367 15.3679C63.4793 15.2364 63.1553 15.0311 62.8871 14.7663C62.4437 14.2315 62.1999 13.5662 62.1957 12.879H68.5466C68.5699 11.9884 68.435 11.1006 68.1478 10.2547ZM63.2017 9.65646C63.5759 9.45423 63.9995 9.35455 64.4273 9.36803C64.7313 9.34267 65.0372 9.38568 65.3213 9.49373C65.6055 9.60178 65.8604 9.77198 66.0662 9.99118C66.3957 10.4408 66.5839 10.974 66.6077 11.5259H62.2176C62.2509 11.224 62.3183 10.9267 62.4188 10.6393C62.5547 10.2301 62.8363 9.88157 63.2127 9.65646H63.2017Z" fill="#545554"/>
<path d="M79.7799 14.7394L77.819 8.06641H76.2532L74.3399 14.7002L72.3241 8.06641H70.3047L73.3155 16.8759H75.0972L77.0251 10.6124L78.975 16.8759H80.7567L83.7858 8.06641H81.8396L79.7799 14.7394Z" fill="#545554"/>
<path d="M95.6429 5.17773H93.3711L90.459 9.46854L87.4042 5.17773H84.9714L89.0981 10.9748L84.9531 16.8786H87.225L90.1883 12.5059L93.2979 16.8786H95.7307L91.5675 11.0246L95.6429 5.17773Z" fill="#545554"/>
<path d="M103.826 8.29774C103.136 8.00012 102.387 7.85075 101.631 7.85976C101.17 7.86001 100.709 7.89213 100.252 7.9559C99.8167 8.01328 99.3895 8.11963 98.9791 8.27281C98.6287 8.39753 98.3121 8.59849 98.0535 8.86035C97.8132 9.10559 97.6818 9.43307 97.6877 9.77192V20.401H99.5608V16.6336C99.6916 16.7033 99.8273 16.764 99.9669 16.8153C100.296 16.9238 100.634 17.006 100.977 17.0609C101.257 17.1088 101.541 17.135 101.825 17.1393C102.619 17.1626 103.404 16.9716 104.094 16.5874C104.72 16.2182 105.217 15.6733 105.52 15.0242C105.86 14.2769 106.026 13.4659 106.007 12.6491C106.054 11.6661 105.849 10.6872 105.411 9.80041C105.067 9.14322 104.51 8.61494 103.826 8.29774ZM103.79 14.2087C103.618 14.6282 103.314 14.9844 102.923 15.2271C102.487 15.4768 101.987 15.6003 101.481 15.5832C101.159 15.5805 100.838 15.5362 100.527 15.4515C100.195 15.3606 99.8746 15.234 99.5718 15.074V10.1743C99.5718 9.93691 99.7547 9.75887 100.121 9.64018C100.595 9.50261 101.089 9.44009 101.584 9.45501C102.133 9.42036 102.678 9.56579 103.131 9.86806C103.502 10.1555 103.765 10.5533 103.881 11.0004C104.026 11.5203 104.096 12.0571 104.09 12.5957C104.1 13.1473 103.998 13.6956 103.79 14.2087Z" fill="#545554"/>
<path d="M116.301 9.96147C116.012 9.29662 115.503 8.74425 114.856 8.39114C114.095 8.0093 113.246 7.82531 112.39 7.85702C110.993 7.85702 109.928 8.2131 109.189 8.97156C108.45 9.73001 108.092 10.8802 108.092 12.4719C108.092 13.9674 108.449 15.1187 109.164 15.9259C109.878 16.733 110.969 17.1365 112.434 17.1365C113.827 17.1365 114.9 16.7306 115.654 15.9187C116.407 15.1069 116.783 13.9579 116.78 12.4719C116.8 11.6118 116.637 10.7572 116.301 9.96147ZM114.651 14.0849C114.511 14.5203 114.236 14.9032 113.865 15.1817C113.435 15.4663 112.921 15.6052 112.401 15.5769C111.512 15.5769 110.883 15.2992 110.51 14.7508C110.1 14.0603 109.905 13.2683 109.95 12.4719C109.939 11.9137 110.018 11.3573 110.184 10.8232C110.314 10.3934 110.587 10.0178 110.96 9.75494C111.392 9.49512 111.895 9.3708 112.401 9.39885C112.908 9.37903 113.41 9.50272 113.846 9.75494C114.217 9.99558 114.496 10.3485 114.64 10.7591C114.97 11.8409 114.97 12.9924 114.64 14.0742L114.651 14.0849Z" fill="#545554"/>
</g>
</svg>
